<svg class="grasshopper" data-execution-id="dispatch-0">
  <rect height="51" width="198" x="25" y="145" fill="black"></rect>
  <rect height="51" width="200" x="30" y="150" fill="black"></rect>
  <rect height="51" width="210" x="20" y="160" fill="black"></rect>
  <rect height="51" width="215" x="15" y="165" fill="black"></rect>
  <rect height="45" width="198" x="20" y="165" fill="darkGrey"></rect>
  <rect height="39" width="192" x="24" y="169" fill="grey"></rect>
  <rect height="12" width="60" x="140" y="175" fill="black"></rect>
  <rect height="147" width="155" x="40" y="9" fill="black"></rect>
  <rect height="142" width="174" x="33" y="13" fill="black"></rect>
  <rect height="125" width="146" x="25" y="25" fill="black"></rect>
  <rect height="117" width="146" x="29" y="20" fill="black"></rect>
  <rect height="6" width="150" x="39" y="13" fill="grey"></rect>
  <rect height="123" width="131" x="29" y="25" fill="darkGrey"></rect>
  <rect height="108" width="150" x="35" y="19" fill="darkGrey"></rect>
  <rect height="123" width="150" x="35" y="25" fill="grey"></rect>
  <rect height="112" width="135" x="40" y="30" fill="darkGrey"></rect>
  <rect height="106" width="126" x="40" y="30" fill="black"></rect>
  <rect fill="rgb(0, 0, 0)" height="106" width="126" x="40" y="30"></rect>
  <rect fill="rgb(0, 0, 0)" height="15" width="15" x="43" y="182" opacity="0.4"></rect>
</svg>